<!DOCTYPE svg PUBLIC "-//W3C//DTD SVG 1.1//EN" "http://www.w3.org/Graphics/SVG/1.1/DTD/svg11.dtd">
<!-- Uploaded to: SVG Repo, www.svgrepo.com, Transformed by: SVG Repo Mixer Tools -->
<svg fill="#fec05f" width="800px" height="800px" viewBox="0 0 24 24" role="img" xmlns="http://www.w3.org/2000/svg">
<g id="SVGRepo_bgCarrier" stroke-width="0"/>
<g id="SVGRepo_tracerCarrier" stroke-linecap="round" stroke-linejoin="round"/>
<g id="SVGRepo_iconCarrier">
<path d="M7.12 11.084a.683.683 0 0 0-1.16.126L.075 22.974a.703.703 0 0 0 .63 1.018h8.19a.678.678 0 0 0 .63-.39c1.767-3.65.696-9.203-2.406-12.52zM11.434.386a15.515 15.515 0 0 0-.906 15.317l3.95 7.9a.703.703 0 0 0 .628.388h8.19a.703.703 0 0 0 .63-1.017L12.63.38a.664.664 0 0 0-1.196.006z"/>
</g>
</svg>